Pink Floyd The Wall (1982)

Director: Alan Parker

Pink Floyd The Wall is a 1982 British live-action/animated musical film directed by Alan Parker based on the 1979 Pink Floyd album The Wall. The screenplay was written by Pink Floyd vocalist and bassist Roger Waters. The film is highly metaphorical and is rich in symbolic imagery and sound. It features very little dialogue and is mainly driven by Pink Floyd's music.

The film contains fifteen minutes of elaborate animation sequences by the political cartoonist and illustrator Gerald Scarfe, part of which depict a nightmarish vision of the German bombing campaign over the United Kingdom during World War II set to the song "Goodbye Blue Sky".

Roger Waters has expressed deep reservations about the film, saying that the filming had been "a very unnerving and unpleasant experience... we all fell out in a big way." As for the film itself, he said: "I found it was so unremitting in its onslaught upon the senses, that it didn't give me, anyway, as an audience, a chance to get involved with it," although he had nothing but praise for Geldof's performance. Parker, who frequently clashed with Waters and Gerald Scarfe, described the filming as "one of the most miserable experiences of my creative life." David Gilmour stated (on the "In the Studio with Redbeard" episodes of The Wall, A Momentary Lapse of Reason and On an Island) that the conflict between him and Waters started with the making of the film. Gilmour also stated on the documentary Behind The Wall (which was aired on the BBC in the UK and VH1 in the US) that "the movie was the less successful telling of The Wall story as opposed to the album and concert versions."

Media Info:
General
Complete name                    : J:\Seeding\Pink Floyd The Wall (1982)[DVDRip][big_dad_e™]\Pink Floyd The Wall (1982)[DVDRip][big_dad_e™].avi
Format                           : AVI
Format/Info                      : Audio Video Interleave
File size                        : 944 MiB
Duration                         : 1h 35mn
Overall bit rate                 : 1 387 Kbps
Movie name                       : DVD_VIDEO.Title1.DVDRip
Writing application              : Lavf52.78.4
Original source form/Name        : DVD_VIDEO

Video
ID                               : 0
Format                           : MPEG-4 Visual
Format profile                   : Advanced Simple@L5
Format settings, BVOP            : 2
Format settings, QPel            : No
Format settings, GMC             : No warppoints
Format settings, Matrix          : Default (H.263)
Muxing mode                      : Packed bitstream
Codec ID                         : XVID
Codec ID/Hint                    : XviD
Duration                         : 1h 35mn
Bit rate                         : 1 055 Kbps
Width                            : 720 pixels
Height                           : 306 pixels
Display aspect ratio             : 2.35:1
Frame rate                       : 23.976 fps
Color space                      : YUV
Chroma subsampling               : 4:2:0
Bit depth                        : 8 bits
Scan type                        : Progressive
Compression mode                 : Lossy
Bits/(Pixel*Frame)               : 0.200
Stream size                      : 718 MiB (76%)
Writing library                  : XviD 

Audio
ID                               : 1
Format                           : MPEG Audio
Format version                   : Version 1
Format profile                   : Layer 3
Mode                             : Joint stereo
Mode extension                   : MS Stereo
Codec ID                         : 55
Codec ID/Hint                    : MP3
Duration                         : 1h 35mn
Bit rate mode                    : Constant
Bit rate                         : 320 Kbps
Channel(s)                       : 2 channels
Sampling rate                    : 48.0 KHz
Compression mode                 : Lossy
Stream size                      : 218 MiB (23%)
Alignment                        : Aligned on interleaves
Interleave, duration             : 24 ms (0.58 video frame)
Interleave, preload duration     : 24 ms
Writing library                  : LAME3.98.4

File Scan:
Malwarebytes' Anti-Malware 1.50.1.1100
www.malwarebytes.org

Database version: 6061
3/15/2011 12:49:00 AM
mbam-log-2011-03-15 (00-49-00).txt

Scan type: Quick scan
Objects scanned: 5
Time elapsed: 7 second(s)

Memory Processes Infected: 0
Memory Modules Infected: 0
Registry Keys Infected: 0
Registry Values Infected: 0
Registry Data Items Infected: 0
Folders Infected: 0
Files Infected: 0

Memory Processes Infected:
(No malicious items detected)

Memory Modules Infected:
(No malicious items detected)

Registry Keys Infected:
(No malicious items detected)

Registry Values Infected:
(No malicious items detected)

Registry Data Items Infected:
(No malicious items detected)

Folders Infected:
(No malicious items detected)

Files Infected:
(No malicious items detected)

When using TPB please read these important notes:
  
01- Anti-malware apps may warn about keygens, patches, cracks, etc., because of 
    their capabilities, (generating codes, etc.). Sometimes they're added to 
    the virus/spyware database and will be detected as malware. If you don't trust
    the keygens, patches, cracks, etc., don't use them. 
    
02- Before running .exe-files, keygens, patches, cracks, etc., always check first 
    if they can be unpacked. Often some third party added a virus to the 
    original file, repacked it and uploaded it again.

03- Letting anti-malware apps send scan results to their companies can cause
    keygens, patches, cracks, etc., to be added to their virus-database.

04- Firewalls which are set to automatically determine connections will allow 
    apps & malware!. Avoid this by manually configuring your firewall.

05- Usually (new) torrents with many downloads and seeders in a brief period is
    suspicious! Torrents with the Skull & Crossbones icon are trusted.

06- Some people use multiple accounts and post fake comments 
    and/or files trying to spread confusion. They seldom seriously
    comment or have any torrents, or a just a few to look passable.

07- Clicking on unknown links can cause malware to be installed on your machine.
  
08- In general often there are more fake and negative comments than reliable and
    positive comments.

09- In some countries uploading/downloading copyright protected material is 
    forbidden, but showing some appreciation to reliable up-loaders is not.

10- Posting fake and negative comments or fake/infected uploads on TPB can result
    in getting banned from TPB!

Requests?  Find me on SuprBay. http://forum.suprbay.org
 

For reporting bad or suspicious torrents:  
http://forum.suprbay.org/forumdisplay.php?fid=29

For more of my torrents: 
https://thepiratebay.org/user/big_dad_e/  (Secured)

All torrents scanned with:
Norton Anti-virus
Malwarebytes' Anti-malware
 
http://www.pirate-party.us/

ALWAYS SEED & THANKS SEEDERS!